<svg width='200' height='200' fill="#000000" xmlns="http://www.w3.org/2000/svg" xmlns:xlink="http://www.w3.org/1999/xlink" version="1.0" x="0px" y="0px" viewBox="0 0 100 100" enable-background="new 0 0 100 100" xml:space="preserve"><path d="M31.3,76.9c-4.2,0-7.7-3.1-7.7-6.9c0-0.9,0.7-1.6,1.6-1.6s1.6,0.7,1.6,1.6c0,2,2,3.6,4.4,3.6c2.4,0,4.4-1.6,4.4-3.6  c0-0.9,0.7-1.6,1.6-1.6s1.6,0.7,1.6,1.6C38.9,73.8,35.5,76.9,31.3,76.9z"/><path d="M55.7,76.9c-4.2,0-7.7-3.1-7.7-6.9c0-0.9,0.7-1.6,1.6-1.6s1.6,0.7,1.6,1.6c0,2,2,3.6,4.4,3.6c2.4,0,4.4-1.6,4.4-3.6  c0-0.9,0.7-1.6,1.6-1.6s1.6,0.7,1.6,1.6C63.3,73.8,59.9,76.9,55.7,76.9z"/><path d="M49.6,70.9c-0.9,0-1.6-0.7-1.6-1.6c0-2-2-3.6-4.4-3.6c-2.4,0-4.4,1.6-4.4,3.6c0,0.9-0.7,1.6-1.6,1.6s-1.6-0.7-1.6-1.6  c0-3.8,3.4-6.9,7.7-6.9c4.2,0,7.7,3.1,7.7,6.9C51.2,70.2,50.5,70.9,49.6,70.9z"/><path d="M74,70.9c-0.9,0-1.6-0.7-1.6-1.6c0-2-2-3.6-4.4-3.6c-2.4,0-4.4,1.6-4.4,3.6c0,0.9-0.7,1.6-1.6,1.6s-1.6-0.7-1.6-1.6  c0-3.8,3.4-6.9,7.7-6.9c4.2,0,7.7,3.1,7.7,6.9C75.6,70.2,74.8,70.9,74,70.9z"/><path d="M48.8,47.8c-0.4,0-0.8-0.2-1.1-0.5L40,39.8c-0.6-0.6-0.6-1.6,0-2.3l10.1-10.3c0.3-0.3,0.7-0.5,1.1-0.5  c0.4,0,0.8,0.2,1.1,0.5l7.8,7.7c0.6,0.6,0.6,1.6,0,2.3c-0.6,0.6-1.6,0.6-2.3,0l-6.6-6.5l-7.9,8l6.5,6.4c0.6,0.6,0.6,1.6,0,2.3  C49.6,47.7,49.2,47.8,48.8,47.8z"/><path d="M54.8,64.5c-0.4,0-0.8-0.2-1.1-0.5c-0.6-0.6-0.6-1.6,0-2.3L73.1,42l-1.5-13.7l-29,29.5c-0.6,0.6-1.6,0.6-2.3,0  c-0.6-0.6-0.6-1.6,0-2.3l31.3-31.9c0.4-0.4,1.1-0.6,1.7-0.4c0.6,0.2,1,0.7,1.1,1.3l2,17.9c0.1,0.5-0.1,1-0.5,1.3L56,64  C55.7,64.3,55.3,64.5,54.8,64.5z"/></svg>